<svg version="1.1" xmlns="http://www.w3.org/2000/svg" viewBox="0 0 1130 530" width="1130" height="530"><!-- svg-source:excalidraw --><metadata></metadata><defs><style class="style-fonts">
      </style></defs><rect x="0" y="0" width="1130" height="530" fill="#fdf6ee"></rect><g stroke-linecap="round" transform="translate(20 20) rotate(0 120 180)"><path d="M0 0 L240 0 L240 360 L0 360" stroke="none" stroke-width="0" fill="#faebd7"></path><path d="M0 0 C65 0, 130.01 0, 240 0 M0 0 C59.81 0, 119.63 0, 240 0 M240 0 C240 119.25, 240 238.51, 240 360 M240 0 C240 119.04, 240 238.07, 240 360 M240 360 C177.85 360, 115.69 360, 0 360 M240 360 C150.89 360, 61.77 360, 0 360 M0 360 C0 277.74, 0 195.48, 0 0 M0 360 C0 227.06, 0 94.12, 0 0" stroke="#b45309" stroke-width="2" fill="none"></path></g><g transform="translate(68 28) rotate(0 72 12.5)"><text x="72" y="17.900390625" font-family="Helvetica, Segoe UI Emoji" font-size="20px" fill="#1c1008" text-anchor="middle" style="white-space: pre;" direction="ltr" dominant-baseline="alphabetic">Entry Points</text></g><g stroke-linecap="round" transform="translate(420 20) rotate(0 140 180)"><path d="M0 0 L280 0 L280 360 L0 360" stroke="none" stroke-width="0" fill="#faebd7"></path><path d="M0 0 C74.61 0, 149.23 0, 280 0 M0 0 C72.8 0, 145.6 0, 280 0 M280 0 C280 96.72, 280 193.43, 280 360 M280 0 C280 139.56, 280 279.13, 280 360 M280 360 C216.64 360, 153.27 360, 0 360 M280 360 C200.18 360, 120.37 360, 0 360 M0 360 C0 227.49, 0 94.97, 0 0 M0 360 C0 253.91, 0 147.83, 0 0" stroke="#b45309" stroke-width="2" fill="none"></path></g><g transform="translate(452 28) rotate(0 108 12.5)"><text x="108" y="17.900390625" font-family="Helvetica, Segoe UI Emoji" font-size="20px" fill="#1c1008" text-anchor="middle" style="white-space: pre;" direction="ltr" dominant-baseline="alphabetic">Core Documentation</text></g><g stroke-linecap="round" transform="translate(870 20) rotate(0 120 245)"><path d="M0 0 L240 0 L240 490 L0 490" stroke="none" stroke-width="0" fill="#faebd7"></path><path d="M0 0 C56.19 0, 112.38 0, 240 0 M0 0 C63.46 0, 126.92 0, 240 0 M240 0 C240 166.63, 240 333.25, 240 490 M240 0 C240 111.28, 240 222.56, 240 490 M240 490 C186.52 490, 133.04 490, 0 490 M240 490 C163.45 490, 86.89 490, 0 490 M0 490 C0 340.47, 0 190.95, 0 0 M0 490 C0 298.14, 0 106.29, 0 0" stroke="#b45309" stroke-width="2" fill="none"></path></g><g transform="translate(888 28) rotate(0 102 12.5)"><text x="102" y="17.900390625" font-family="Helvetica, Segoe UI Emoji" font-size="20px" fill="#1c1008" text-anchor="middle" style="white-space: pre;" direction="ltr" dominant-baseline="alphabetic">Supporting Guides</text></g><g stroke-linecap="round" transform="translate(50 70) rotate(0 90 27)"><path d="M0 0 L180 0 L180 54 L0 54" stroke="none" stroke-width="0" fill="#FFFFFF"></path><path d="M0 0 C67.66 0, 135.31 0, 180 0 M0 0 C58.13 0, 116.25 0, 180 0 M180 0 C180 10.9, 180 21.8, 180 54 M180 0 C180 17.38, 180 34.77, 180 54 M180 54 C119.32 54, 58.64 54, 0 54 M180 54 C141.92 54, 103.83 54, 0 54 M0 54 C0 33.05, 0 12.1, 0 0 M0 54 C0 32.41, 0 10.82, 0 0" stroke="#b45309" stroke-width="2" fill="none"></path></g><g transform="translate(62 84) rotate(0 78 12.5)"><text x="78" y="17.900390625" font-family="Helvetica, Segoe UI Emoji" font-size="20px" fill="#1c1008" text-anchor="middle" style="white-space: pre;" direction="ltr" dominant-baseline="alphabetic">Release Notes</text></g><g stroke-linecap="round" transform="translate(50 170) rotate(0 90 27)"><path d="M0 0 L180 0 L180 54 L0 54" stroke="none" stroke-width="0" fill="#FFFFFF"></path><path d="M0 0 C42.35 0, 84.7 0, 180 0 M0 0 C66.95 0, 133.91 0, 180 0 M180 0 C180 17.87, 180 35.74, 180 54 M180 0 C180 16.05, 180 32.1, 180 54 M180 54 C143.28 54, 106.55 54, 0 54 M180 54 C118.08 54, 56.16 54, 0 54 M0 54 C0 41.54, 0 29.08, 0 0 M0 54 C0 34.82, 0 15.64, 0 0" stroke="#b45309" stroke-width="2" fill="none"></path></g><g transform="translate(74 184) rotate(0 66 12.5)"><text x="66" y="17.900390625" font-family="Helvetica, Segoe UI Emoji" font-size="20px" fill="#1c1008" text-anchor="middle" style="white-space: pre;" direction="ltr" dominant-baseline="alphabetic">Quick Start</text></g><g stroke-linecap="round" transform="translate(50 285) rotate(0 90 27)"><path d="M0 0 L180 0 L180 54 L0 54" stroke="none" stroke-width="0" fill="#FFFFFF"></path><path d="M0 0 C71.42 0, 142.84 0, 180 0 M0 0 C55.33 0, 110.65 0, 180 0 M180 0 C180 19.61, 180 39.21, 180 54 M180 0 C180 11.77, 180 23.54, 180 54 M180 54 C129.17 54, 78.34 54, 0 54 M180 54 C123.43 54, 66.85 54, 0 54 M0 54 C0 40.32, 0 26.64, 0 0 M0 54 C0 32.94, 0 11.88, 0 0" stroke="#b45309" stroke-width="2" fill="none"></path></g><g transform="translate(92 299) rotate(0 48 12.5)"><text x="48" y="17.900390625" font-family="Helvetica, Segoe UI Emoji" font-size="20px" fill="#1c1008" text-anchor="middle" style="white-space: pre;" direction="ltr" dominant-baseline="alphabetic">Concepts</text></g><g stroke-linecap="round" transform="translate(470 95) rotate(0 90 39)"><path d="M0 0 L180 0 L180 78 L0 78" stroke="none" stroke-width="0" fill="#FFFFFF"></path><path d="M0 0 C38.21 0, 76.42 0, 180 0 M0 0 C44.39 0, 88.77 0, 180 0 M180 0 C180 20.9, 180 41.8, 180 78 M180 0 C180 28.02, 180 56.05, 180 78 M180 78 C115.19 78, 50.39 78, 0 78 M180 78 C116.24 78, 52.48 78, 0 78 M0 78 C0 52.99, 0 27.98, 0 0 M0 78 C0 56.6, 0 35.19, 0 0" stroke="#b45309" stroke-width="2" fill="none"></path></g><g transform="translate(500 109) rotate(0 60 25)"><text x="60" y="17.900390625" font-family="Helvetica, Segoe UI Emoji" font-size="20px" fill="#1c1008" text-anchor="middle" style="white-space: pre;" direction="ltr" dominant-baseline="alphabetic">Kubernetes</text><text x="60" y="42.900390625" font-family="Helvetica, Segoe UI Emoji" font-size="20px" fill="#1c1008" text-anchor="middle" style="white-space: pre;" direction="ltr" dominant-baseline="alphabetic">Clusters</text></g><g stroke-linecap="round" transform="translate(470 245) rotate(0 90 27)"><path d="M0 0 L180 0 L180 54 L0 54" stroke="none" stroke-width="0" fill="#FFFFFF"></path><path d="M0 0 C68.33 0, 136.65 0, 180 0 M0 0 C51.41 0, 102.82 0, 180 0 M180 0 C180 11.27, 180 22.54, 180 54 M180 0 C180 17.92, 180 35.85, 180 54 M180 54 C133.93 54, 87.86 54, 0 54 M180 54 C133.02 54, 86.03 54, 0 54 M0 54 C0 33.27, 0 12.53, 0 0 M0 54 C0 39.5, 0 25, 0 0" stroke="#b45309" stroke-width="2" fill="none"></path></g><g transform="translate(488 259) rotate(0 72 12.5)"><text x="72" y="17.900390625" font-family="Helvetica, Segoe UI Emoji" font-size="20px" fill="#1c1008" text-anchor="middle" style="white-space: pre;" direction="ltr" dominant-baseline="alphabetic">Applications</text></g><g stroke-linecap="round" transform="translate(900 70) rotate(0 90 27)"><path d="M0 0 L180 0 L180 54 L0 54" stroke="none" stroke-width="0" fill="#FFFFFF"></path><path d="M0 0 C66.48 0, 132.96 0, 180 0 M0 0 C69.12 0, 138.23 0, 180 0 M180 0 C180 18.65, 180 37.3, 180 54 M180 0 C180 12.55, 180 25.1, 180 54 M180 54 C135.74 54, 91.49 54, 0 54 M180 54 C117.78 54, 55.57 54, 0 54 M0 54 C0 40.98, 0 27.96, 0 0 M0 54 C0 36.21, 0 18.42, 0 0" stroke="#b45309" stroke-width="2" fill="none"></path></g><g transform="translate(912 84) rotate(0 78 12.5)"><text x="78" y="17.900390625" font-family="Helvetica, Segoe UI Emoji" font-size="20px" fill="#1c1008" text-anchor="middle" style="white-space: pre;" direction="ltr" dominant-baseline="alphabetic">CLI Reference</text></g><g stroke-linecap="round" transform="translate(900 185) rotate(0 90 27)"><path d="M0 0 L180 0 L180 54 L0 54" stroke="none" stroke-width="0" fill="#FFFFFF"></path><path d="M0 0 C68.77 0, 137.53 0, 180 0 M0 0 C53.58 0, 107.17 0, 180 0 M180 0 C180 13.24, 180 26.47, 180 54 M180 0 C180 16.7, 180 33.4, 180 54 M180 54 C121.2 54, 62.4 54, 0 54 M180 54 C117.36 54, 54.72 54, 0 54 M0 54 C0 39.04, 0 24.07, 0 0 M0 54 C0 34.76, 0 15.52, 0 0" stroke="#b45309" stroke-width="2" fill="none"></path></g><g transform="translate(930 199) rotate(0 60 12.5)"><text x="60" y="17.900390625" font-family="Helvetica, Segoe UI Emoji" font-size="20px" fill="#1c1008" text-anchor="middle" style="white-space: pre;" direction="ltr" dominant-baseline="alphabetic">Kubernetes</text></g><g stroke-linecap="round" transform="translate(900 300) rotate(0 90 39)"><path d="M0 0 L180 0 L180 78 L0 78" stroke="none" stroke-width="0" fill="#FFFFFF"></path><path d="M0 0 C64.69 0, 129.37 0, 180 0 M0 0 C42.01 0, 84.03 0, 180 0 M180 0 C180 25.21, 180 50.42, 180 78 M180 0 C180 19.46, 180 38.91, 180 78 M180 78 C129.01 78, 78.03 78, 0 78 M180 78 C143.63 78, 107.25 78, 0 78 M0 78 C0 56.32, 0 34.63, 0 0 M0 78 C0 61.56, 0 45.13, 0 0" stroke="#b45309" stroke-width="2" fill="none"></path></g><g transform="translate(936 314) rotate(0 54 25)"><text x="54" y="17.900390625" font-family="Helvetica, Segoe UI Emoji" font-size="20px" fill="#1c1008" text-anchor="middle" style="white-space: pre;" direction="ltr" dominant-baseline="alphabetic">OCK Image</text><text x="54" y="42.900390625" font-family="Helvetica, Segoe UI Emoji" font-size="20px" fill="#1c1008" text-anchor="middle" style="white-space: pre;" direction="ltr" dominant-baseline="alphabetic">Builder</text></g><g stroke-linecap="round" transform="translate(900 430) rotate(0 90 27)"><path d="M0 0 L180 0 L180 54 L0 54" stroke="none" stroke-width="0" fill="#FFFFFF"></path><path d="M0 0 C57.84 0, 115.69 0, 180 0 M0 0 C50.51 0, 101.03 0, 180 0 M180 0 C180 16.85, 180 33.69, 180 54 M180 0 C180 17.92, 180 35.84, 180 54 M180 54 C130.41 54, 80.82 54, 0 54 M180 54 C118.83 54, 57.66 54, 0 54 M0 54 C0 41.44, 0 28.89, 0 0 M0 54 C0 35.49, 0 16.98, 0 0" stroke="#b45309" stroke-width="2" fill="none"></path></g><g transform="translate(948 444) rotate(0 42 12.5)"><text x="42" y="17.900390625" font-family="Helvetica, Segoe UI Emoji" font-size="20px" fill="#1c1008" text-anchor="middle" style="white-space: pre;" direction="ltr" dominant-baseline="alphabetic">Upgrade</text></g><g mask="url(#mask-RN_KC)" stroke-linecap="round"><g transform="translate(230 93) rotate(0 120 9)"><path d="M0 0 C40 3, 200 15, 240 18 M0 0 C40 3, 200 15, 240 18" stroke="#b45309" stroke-width="2" fill="none"></path></g><g transform="translate(230 93) rotate(0 120 9)"><path d="M215.93 24.77 C224.03 22.49, 232.13 20.21, 240 18 M215.93 24.77 C223.28 22.7, 230.63 20.63, 240 18" stroke="#b45309" stroke-width="2" fill="none"></path></g><g transform="translate(230 93) rotate(0 120 9)"><path d="M217.21 7.72 C224.88 11.18, 232.54 14.64, 240 18 M217.21 7.72 C224.17 10.86, 231.13 14, 240 18" stroke="#b45309" stroke-width="2" fill="none"></path></g></g><mask id="mask-RN_KC"><rect x="0" y="0" fill="#fff" width="570" height="211"></rect><rect x="290" y="92" fill="#000" width="120" height="20" opacity="1"></rect></mask><g transform="translate(290 92) rotate(0 60 10)"><text x="60" y="14.3203125" font-family="Helvetica, Segoe UI Emoji" font-size="16px" fill="#b45309" text-anchor="middle" style="white-space: pre;" direction="ltr" dominant-baseline="alphabetic">what's new</text></g><g mask="url(#mask-QS_KC)" stroke-linecap="round"><g transform="translate(230 197) rotate(0 120 -31.5)"><path d="M0 0 C40 -10.5, 200 -52.5, 240 -63 M0 0 C40 -10.5, 200 -52.5, 240 -63" stroke="#b45309" stroke-width="2" fill="none"></path></g><g transform="translate(230 197) rotate(0 120 -31.5)"><path d="M219.45 -48.77 C227.38 -54.26, 235.31 -59.75, 240 -63 M219.45 -48.77 C224.28 -52.11, 229.12 -55.46, 240 -63" stroke="#b45309" stroke-width="2" fill="none"></path></g><g transform="translate(230 197) rotate(0 120 -31.5)"><path d="M215.11 -65.31 C224.71 -64.42, 234.31 -63.53, 240 -63 M215.11 -65.31 C220.96 -64.76, 226.82 -64.22, 240 -63" stroke="#b45309" stroke-width="2" fill="none"></path></g></g><mask id="mask-QS_KC"><rect x="0" y="0" fill="#fff" width="570" height="360"></rect><rect x="300" y="155.5" fill="#000" width="100" height="20" opacity="1"></rect></mask><g transform="translate(300 155.5) rotate(0 50 10)"><text x="50" y="14.3203125" font-family="Helvetica, Segoe UI Emoji" font-size="16px" fill="#b45309" text-anchor="middle" style="white-space: pre;" direction="ltr" dominant-baseline="alphabetic">deployment</text></g><g mask="url(#mask-CON_KC)" stroke-linecap="round"><g transform="translate(230 312) rotate(0 120 -77.5)"><path d="M0 0 C40 -25.83, 200 -129.17, 240 -155 M0 0 C40 -25.83, 200 -129.17, 240 -155" stroke="#b45309" stroke-width="2" fill="none"></path></g><g transform="translate(230 312) rotate(0 120 -77.5)"><path d="M224.9 -135.07 C228.62 -139.98, 232.33 -144.88, 240 -155 M224.9 -135.07 C229.61 -141.28, 234.31 -147.49, 240 -155" stroke="#b45309" stroke-width="2" fill="none"></path></g><g transform="translate(230 312) rotate(0 120 -77.5)"><path d="M215.63 -149.44 C221.62 -150.81, 227.62 -152.18, 240 -155 M215.63 -149.44 C223.22 -151.17, 230.82 -152.9, 240 -155" stroke="#b45309" stroke-width="2" fill="none"></path></g></g><mask id="mask-CON_KC"><rect x="0" y="0" fill="#fff" width="570" height="567"></rect><rect x="296" y="224.5" fill="#000" width="108" height="20" opacity="1"></rect></mask><g transform="translate(296 224.5) rotate(0 54 10)"><text x="54" y="14.3203125" font-family="Helvetica, Segoe UI Emoji" font-size="16px" fill="#b45309" text-anchor="middle" style="white-space: pre;" direction="ltr" dominant-baseline="alphabetic">architecture</text></g><g mask="url(#mask-KC_CLI)" stroke-linecap="round"><g transform="translate(650 103) rotate(0 125 -3)"><path d="M0 0 C41.67 -1, 208.33 -5, 250 -6 M0 0 C41.67 -1, 208.33 -5, 250 -6" stroke="#b45309" stroke-width="2" fill="none"></path></g><g transform="translate(650 103) rotate(0 125 -3)"><path d="M23.28 -9.11 C16.65 -6.52, 10.03 -3.92, 0 0 M23.28 -9.11 C17.09 -6.69, 10.91 -4.27, 0 0" stroke="#b45309" stroke-width="2" fill="none"></path></g><g transform="translate(650 103) rotate(0 125 -3)"><path d="M23.69 7.98 C16.95 5.71, 10.2 3.44, 0 0 M23.69 7.98 C17.4 5.86, 11.1 3.74, 0 0" stroke="#b45309" stroke-width="2" fill="none"></path></g><g transform="translate(650 103) rotate(0 125 -3)"><path d="M226.72 3.11 C233.35 0.52, 239.97 -2.08, 250 -6 M226.72 3.11 C232.91 0.69, 239.09 -1.73, 250 -6" stroke="#b45309" stroke-width="2" fill="none"></path></g><g transform="translate(650 103) rotate(0 125 -3)"><path d="M226.31 -13.98 C233.05 -11.71, 239.8 -9.44, 250 -6 M226.31 -13.98 C232.6 -11.86, 238.9 -9.74, 250 -6" stroke="#b45309" stroke-width="2" fill="none"></path></g></g><mask id="mask-KC_CLI"><rect x="0" y="0" fill="#fff" width="1000" height="209"></rect><rect x="691" y="90" fill="#000" width="168" height="20" opacity="1"></rect></mask><g transform="translate(691 90) rotate(0 84 10)"><text x="84" y="14.3203125" font-family="Helvetica, Segoe UI Emoji" font-size="16px" fill="#b45309" text-anchor="middle" style="white-space: pre;" direction="ltr" dominant-baseline="alphabetic">command syntax</text></g><g mask="url(#mask-KC_APP)" stroke-linecap="round"><g transform="translate(560 173) rotate(0 0 36)"><path d="M0 0 C0 12, 0 60, 0 72 M0 0 C0 12, 0 60, 0 72" stroke="#b45309" stroke-width="2" fill="none"></path></g><g transform="translate(560 173) rotate(0 0 36)"><path d="M-8.55 48.51 C-6.71 53.55, -4.88 58.6, 0 72 M-8.55 48.51 C-6.07 55.31, -3.6 62.12, 0 72" stroke="#b45309" stroke-width="2" fill="none"></path></g><g transform="translate(560 173) rotate(0 0 36)"><path d="M8.55 48.51 C6.71 53.55, 4.88 58.6, 0 72 M8.55 48.51 C6.07 55.31, 3.6 62.12, 0 72" stroke="#b45309" stroke-width="2" fill="none"></path></g></g><mask id="mask-KC_APP"><rect x="0" y="0" fill="#fff" width="660" height="345"></rect><rect x="494" y="199" fill="#000" width="132" height="20" opacity="1"></rect></mask><g transform="translate(494 199) rotate(0 66 10)"><text x="66" y="14.3203125" font-family="Helvetica, Segoe UI Emoji" font-size="16px" fill="#b45309" text-anchor="middle" style="white-space: pre;" direction="ltr" dominant-baseline="alphabetic">deploy apps</text></g><g mask="url(#mask-KC_K8S)" stroke-linecap="round"><g transform="translate(650 122) rotate(0 125 45)"><path d="M0 0 C41.67 15, 208.33 75, 250 90 M0 0 C41.67 15, 208.33 75, 250 90" stroke="#b45309" stroke-width="2" fill="none"></path></g><g transform="translate(650 122) rotate(0 125 45)"><path d="M225 90.09 C232.32 90.06, 239.63 90.04, 250 90 M225 90.09 C234.53 90.05, 244.07 90.02, 250 90" stroke="#b45309" stroke-width="2" fill="none"></path></g><g transform="translate(650 122) rotate(0 125 45)"><path d="M230.79 74 C236.41 78.68, 242.04 83.36, 250 90 M230.79 74 C238.12 80.1, 245.44 86.2, 250 90" stroke="#b45309" stroke-width="2" fill="none"></path></g></g><mask id="mask-KC_K8S"><rect x="0" y="0" fill="#fff" width="1000" height="312"></rect><rect x="715" y="157" fill="#000" width="120" height="20" opacity="1"></rect></mask><g transform="translate(715 157) rotate(0 60 10)"><text x="60" y="14.3203125" font-family="Helvetica, Segoe UI Emoji" font-size="16px" fill="#b45309" text-anchor="middle" style="white-space: pre;" direction="ltr" dominant-baseline="alphabetic">k8s basics</text></g><g mask="url(#mask-KC_OCK)" stroke-linecap="round"><g transform="translate(650 146) rotate(0 125 96.5)"><path d="M0 0 C41.67 32.17, 208.33 160.83, 250 193 M0 0 C41.67 32.17, 208.33 160.83, 250 193" stroke="#b45309" stroke-width="2" fill="none"></path></g><g transform="translate(650 146) rotate(0 125 96.5)"><path d="M226.18 185.41 C231.71 187.17, 237.24 188.93, 250 193 M226.18 185.41 C232.78 187.52, 239.38 189.62, 250 193" stroke="#b45309" stroke-width="2" fill="none"></path></g><g transform="translate(650 146) rotate(0 125 96.5)"><path d="M236.63 171.88 C239.73 176.78, 242.84 181.68, 250 193 M236.63 171.88 C240.33 177.73, 244.04 183.58, 250 193" stroke="#b45309" stroke-width="2" fill="none"></path></g></g><mask id="mask-KC_OCK"><rect x="0" y="0" fill="#fff" width="1000" height="439"></rect><rect x="697" y="232.5" fill="#000" width="156" height="20" opacity="1"></rect></mask><g transform="translate(697 232.5) rotate(0 78 10)"><text x="78" y="14.3203125" font-family="Helvetica, Segoe UI Emoji" font-size="16px" fill="#b45309" text-anchor="middle" style="white-space: pre;" direction="ltr" dominant-baseline="alphabetic">custom images</text></g><g mask="url(#mask-KC_UPG)" stroke-linecap="round"><g transform="translate(650 165) rotate(0 125 146)"><path d="M0 0 C41.67 48.67, 208.33 243.33, 250 292 M0 0 C41.67 48.67, 208.33 243.33, 250 292" stroke="#b45309" stroke-width="2" fill="none"></path></g><g transform="translate(650 165) rotate(0 125 146)"><path d="M21.77 12.28 C15.43 8.71, 9.09 5.13, 0 0 M21.77 12.28 C16.68 9.41, 11.58 6.53, 0 0" stroke="#b45309" stroke-width="2" fill="none"></path></g><g transform="translate(650 165) rotate(0 125 146)"><path d="M8.78 23.41 C6.22 16.59, 3.67 9.77, 0 0 M8.78 23.41 C6.73 17.93, 4.67 12.44, 0 0" stroke="#b45309" stroke-width="2" fill="none"></path></g><g transform="translate(650 165) rotate(0 125 146)"><path d="M228.23 279.72 C234.57 283.29, 240.91 286.87, 250 292 M228.23 279.72 C233.32 282.59, 238.42 285.47, 250 292" stroke="#b45309" stroke-width="2" fill="none"></path></g><g transform="translate(650 165) rotate(0 125 146)"><path d="M241.22 268.59 C243.78 275.41, 246.33 282.23, 250 292 M241.22 268.59 C243.27 274.07, 245.33 279.56, 250 292" stroke="#b45309" stroke-width="2" fill="none"></path></g></g><mask id="mask-KC_UPG"><rect x="0" y="0" fill="#fff" width="1000" height="557"></rect><rect x="703" y="301" fill="#000" width="144" height="20" opacity="1"></rect></mask><g transform="translate(703 301) rotate(0 72 10)"><text x="72" y="14.3203125" font-family="Helvetica, Segoe UI Emoji" font-size="16px" fill="#b45309" text-anchor="middle" style="white-space: pre;" direction="ltr" dominant-baseline="alphabetic">R1 migration</text></g></svg>